<?xml version="1.0" encoding="utf-8"?>
<!-- Generator: Adobe Illustrator 24.1.1, SVG Export Plug-In . SVG Version: 6.00 Build 0)  -->
<svg version="1.1" id="Layer_1" xmlns="http://www.w3.org/2000/svg" xmlns:xlink="http://www.w3.org/1999/xlink" x="0px" y="0px"
	 viewBox="0 0 512 512" style="enable-background:new 0 0 512 512;" xml:space="preserve">
<g>
	<path d="M436.7,74.6C387,25.1,326.1,0,256,0C185.2,0,124.2,25.1,74.7,74.7C25.1,124.2,0,185.2,0,256c0,70.1,25.1,130.9,74.6,180.7
		C124.2,486.7,185.2,512,256,512c70.2,0,131-25.3,180.8-75.2C486.7,387,512,326.1,512,256C512,185.2,486.7,124.2,436.7,74.6z
		 M396.6,396.6c-32.3,32.4-69.3,50.9-112.1,56.5V312.9h56.9V256h-56.9v-39.8c0-9.4,7.7-17.1,17.1-17.1h39.8v-56.9h-39.7
		c-21.1,0-38.7,7.8-52.8,23.4c-14.1,15.6-21.2,34.6-21.2,57.1V256h-56.9v56.9h56.9v140.2c-43.3-5.6-80.4-24-112.6-56.4
		C75.9,357.3,56.9,311.3,56.9,256c0-55.9,19-102.1,58.1-141.1c39-39.1,85.1-58,141-58c55.3,0,101.3,19,140.7,58.1
		c39.3,39,58.5,85.2,58.5,141C455.1,311.2,436,357.2,396.6,396.6z"/>
</g>
</svg>
